<svg width="40" height="40" viewBox="0 0 40 40" fill="none" xmlns="http://www.w3.org/2000/svg">
<path d="M11.8 39.95C10.8 39.95 9.95 39.6 9.25 38.9C8.55 38.2 8.2 37.35 8.2 36.35C8.2 35.35 8.55 34.5 9.25 33.8C9.95 33.1 10.8 32.75 11.8 32.75C12.8 32.75 13.65 33.1 14.35 33.8C15.05 34.5 15.4 35.35 15.4 36.35C15.4 37.35 15.05 38.2 14.35 38.9C13.65 39.6 12.8 39.95 11.8 39.95ZM31.8 39.95C30.8 39.95 29.95 39.6 29.25 38.9C28.55 38.2 28.2 37.35 28.2 36.35C28.2 35.35 28.55 34.5 29.25 33.8C29.95 33.1 30.8 32.75 31.8 32.75C32.8 32.75 33.65 33.1 34.35 33.8C35.05 34.5 35.4 35.35 35.4 36.35C35.4 37.35 35.05 38.2 34.35 38.9C33.65 39.6 32.8 39.95 31.8 39.95ZM9.2 6.95L14.7 18.35H29.1L35.35 6.95H9.2ZM7.7 3.95H37.15C37.9167 3.95 38.5 4.3 38.9 5C39.3 5.7 39.3 6.4 38.9 7.1L32.15 19.25C31.7833 19.8833 31.3083 20.3917 30.725 20.775C30.1417 21.1583 29.5 21.35 28.8 21.35H13.65L10.85 26.55H35.4V29.55H11.3C9.9 29.55 8.89167 29.0833 8.275 28.15C7.65833 27.2167 7.66667 26.1667 8.3 25L11.5 19.1L3.9 3H0V0H5.85L7.7 3.95Z" fill="#FDFDFD"/>
</svg>
