<svg width="100" height="100" viewBox="0 0 100 100" fill="none" xmlns="http://www.w3.org/2000/svg">
<circle cx="50" cy="50" r="50" fill="url(#paint0_linear_283_36)"/>
<path d="M79.7674 61.7754H75.4811L76.6113 46.7154C76.6402 46.3321 76.5237 45.9529 76.2903 45.6698C76.057 45.3867 75.7279 45.2256 75.3831 45.2256H74.6044V36.5825C74.6044 35.8229 74.0527 35.2074 73.3718 35.2074H61.9375L62.0457 33.0422H62.6973C63.3782 33.0422 63.93 32.4268 63.93 31.6672V27.7463C63.93 26.9867 63.3782 26.3712 62.6973 26.3712H59.7127L61.8243 20.4235L70.8723 16.6642C71.5102 16.3992 71.8346 15.6072 71.5971 14.8956C71.36 14.1839 70.6501 13.8218 70.0119 14.0869L60.45 18.0596C60.1226 18.1955 59.8626 18.4798 59.7342 18.8419L57.0609 26.3712H41.1746C40.4937 26.3712 39.942 26.9867 39.942 27.7463V31.6672C39.942 32.4268 40.4937 33.0422 41.1746 33.0422H41.833L42.0944 37.772C41.0897 37.5252 40.0413 37.3916 38.9617 37.3916C32.1475 37.3916 26.5232 42.607 25.8364 49.2733H24.6166C23.9356 49.2733 23.3839 49.8888 23.3839 50.6484V54.7465C23.3839 55.3769 23.7642 55.9067 24.2828 56.0692C24.1897 56.4214 24.1389 56.7949 24.1389 57.1819C24.1389 58.5935 24.8079 59.8254 25.7969 60.4818C25.8249 60.9163 25.8761 61.3477 25.9455 61.7754H20.2326C19.5517 61.7754 19 62.3911 19 63.1505V67.6249C19 68.3845 19.5517 69 20.2326 69H79.7674C80.4483 69 81 68.3845 81 67.6249V63.1505C81 62.3911 80.4483 61.7754 79.7674 61.7754ZM54.6454 46.7158L55.7776 61.7756H51.9629C52.0403 61.3457 52.0942 60.9183 52.1239 60.4836C53.114 59.8276 53.7842 58.5948 53.7842 57.1821C53.7842 56.7949 53.7316 56.4221 53.6374 56.0701C54.1571 55.9088 54.5391 55.3783 54.5391 54.7467V50.6486C54.5391 49.889 53.9873 49.2735 53.3064 49.2735H52.0828C51.5998 44.5859 48.6773 40.6153 44.6139 38.6722L44.3028 33.0426H59.5766L59.4685 35.2077H57.8853C57.2044 35.2077 56.6526 35.8232 56.6526 36.5828V45.2259H55.8739C55.5291 45.2259 55.1998 45.3871 54.9665 45.6702C54.733 45.9531 54.6165 46.3324 54.6454 46.7158ZM73.7345 47.9759C72.7311 49.3507 69.8274 50.7588 65.6284 50.7588C61.4293 50.7588 58.5252 49.3507 57.5219 47.9759H73.7345ZM59.1179 45.2257V37.9577H60.5236V45.2257H59.1179ZM65.6284 53.5088C68.9353 53.5088 71.8091 52.7191 73.7843 51.4232L73.0071 61.7754H58.2511L57.4734 51.4247C59.4481 52.72 62.3224 53.5088 65.6284 53.5088ZM70.7335 37.9577H72.1391V45.2257H70.7335V37.9577ZM66.8626 37.9577H68.2683V45.2257H66.8626V37.9577ZM62.9887 37.9577H64.3944V45.2257H62.9887V37.9577ZM42.4073 29.1218H61.4647V30.2924H42.4073V29.1218ZM38.9617 40.1419C44.4025 40.1419 48.9107 44.1275 49.6008 49.2735H28.3222C29.0123 44.1275 33.5205 40.1419 38.9617 40.1419ZM25.8492 53.3714V52.0235H52.0738V53.3714H25.8492ZM27.4253 58.236C26.9724 58.236 26.6042 57.7633 26.6042 57.1821C26.6042 56.6007 26.9724 56.1279 27.4253 56.1279H50.498C50.9506 56.1279 51.3188 56.6007 51.3188 57.1821C51.3188 57.7633 50.9506 58.236 50.498 58.236H27.4253ZM49.5919 60.9861C49.5521 61.2467 49.4994 61.5081 49.4343 61.7756H28.4599C28.404 61.5145 28.3572 61.2514 28.3219 60.9861H49.5919ZM78.5347 66.2498H21.4653V64.5256H78.5347V66.2498Z" fill="#FDFDFD"/>
<path d="M38.9592 44.2267C38.6353 44.2267 38.3182 44.0801 38.088 43.8234C37.8579 43.5685 37.7266 43.2128 37.7266 42.8517C37.7266 42.4903 37.8579 42.1348 38.088 41.8799C38.3181 41.6232 38.6353 41.4766 38.9592 41.4766C39.2845 41.4766 39.6015 41.6232 39.8317 41.8799C40.0604 42.1348 40.1918 42.4903 40.1918 42.8517C40.1918 43.2128 40.0602 43.5685 39.8317 43.8234C39.6015 44.0801 39.2845 44.2267 38.9592 44.2267Z" fill="#FDFDFD"/>
<path d="M34.0432 46.3596C33.7192 46.3596 33.4022 46.2129 33.172 45.9562C32.9419 45.7013 32.8105 45.3475 32.8105 44.9845C32.8105 44.6233 32.9419 44.2694 33.172 44.0127C33.402 43.7561 33.7192 43.6094 34.0432 43.6094C34.3684 43.6094 34.6858 43.7561 34.9157 44.0127C35.1443 44.2676 35.2758 44.6233 35.2758 44.9845C35.2758 45.3473 35.1442 45.7013 34.9157 45.9562C34.6858 46.2129 34.3683 46.3596 34.0432 46.3596Z" fill="#FDFDFD"/>
<path d="M43.8772 46.3596C43.5518 46.3596 43.2346 46.2129 43.0043 45.9562C42.7757 45.7013 42.6445 45.3475 42.6445 44.9845C42.6445 44.6233 42.7758 44.2694 43.0043 44.0127C43.2344 43.7561 43.5516 43.6094 43.8772 43.6094C44.2008 43.6094 44.5178 43.7561 44.7481 44.0127C44.9767 44.2694 45.1098 44.6233 45.1098 44.9845C45.1098 45.3473 44.9765 45.7013 44.7481 45.9562C44.5178 46.2129 44.2008 46.3596 43.8772 46.3596Z" fill="#FDFDFD"/>
<defs>
<linearGradient id="paint0_linear_283_36" x1="0" y1="50" x2="100" y2="50" gradientUnits="userSpaceOnUse">
<stop stop-color="#E4052C"/>
<stop offset="1" stop-color="#97041A"/>
</linearGradient>
</defs>
</svg>
