<svg width="77" height="40" viewBox="0 0 77 40" fill="none" xmlns="http://www.w3.org/2000/svg">
<path d="M7.35417 10.0601C7.35417 7.52965 11.7333 5.85982 11.7333 3.09964C11.7333 1.48467 10.3167 0.0822912 10.1042 0C10.1208 0.11315 10.1292 0.22973 10.1292 0.34288C10.1292 3.50081 4 5.61981 4 9.55264C4 11.2602 5.34167 12.2683 6.77083 13.266C9.48333 14.8673 10.025 15.7142 10.025 16.2354C10.025 16.5817 9.825 16.8183 9.825 17C10.3708 16.4274 10.55 15.9062 10.5542 15.409C10.5542 14.3941 9.65 13.4786 8.7125 12.4431C8.04583 11.6785 7.35417 10.9825 7.35417 10.0601ZM15.9083 8.72287C15.4042 6.43243 12.6583 4.45744 11.9625 4.23457L12.1292 4.48144C12.2292 4.65631 12.2708 4.85518 12.2708 5.06777C12.2708 6.60044 10.0125 8.8806 9.9125 9.06918C9.82083 9.24405 9.77917 9.4292 9.77917 9.61093C9.77917 10.3001 10.4125 11.0545 10.525 11.0545C10.625 11.0545 12.8833 9.1549 12.9458 8.0474C13.2125 8.44857 13.325 8.82231 13.325 9.19262C13.325 10.6053 11.5833 12.5151 11.5833 12.5151C11.5833 12.9129 12.9125 14.3392 13.0625 14.3392C13.1042 14.3392 13.1542 14.2912 13.1958 14.257C14.775 12.9094 16 11.3425 16 9.56636C16 9.29205 15.9708 9.01089 15.9083 8.72287Z" fill="#DB241B"/>
<path d="M24.9841 2.425V4.765H20.7541V6.625H23.8741V8.86H20.7541V13H17.8141V2.425H24.9841ZM31.2923 13.105C30.3023 13.105 29.3923 12.875 28.5623 12.415C27.7323 11.945 27.0723 11.3 26.5823 10.48C26.1023 9.65 25.8623 8.715 25.8623 7.675C25.8623 6.635 26.1023 5.705 26.5823 4.885C27.0723 4.055 27.7323 3.41 28.5623 2.95C29.3923 2.49 30.3023 2.26 31.2923 2.26C32.2923 2.26 33.2023 2.49 34.0223 2.95C34.8523 3.41 35.5073 4.055 35.9873 4.885C36.4673 5.705 36.7073 6.635 36.7073 7.675C36.7073 8.715 36.4673 9.65 35.9873 10.48C35.5073 11.3 34.8523 11.945 34.0223 12.415C33.1923 12.875 32.2823 13.105 31.2923 13.105ZM31.2923 10.375C32.0423 10.375 32.6323 10.13 33.0623 9.64C33.5023 9.15 33.7223 8.495 33.7223 7.675C33.7223 6.835 33.5023 6.175 33.0623 5.695C32.6323 5.205 32.0423 4.96 31.2923 4.96C30.5323 4.96 29.9373 5.205 29.5073 5.695C29.0773 6.175 28.8623 6.835 28.8623 7.675C28.8623 8.505 29.0773 9.165 29.5073 9.655C29.9373 10.135 30.5323 10.375 31.2923 10.375ZM43.099 13.105C42.109 13.105 41.199 12.875 40.369 12.415C39.539 11.945 38.879 11.3 38.389 10.48C37.909 9.65 37.669 8.715 37.669 7.675C37.669 6.635 37.909 5.705 38.389 4.885C38.879 4.055 39.539 3.41 40.369 2.95C41.199 2.49 42.109 2.26 43.099 2.26C44.099 2.26 45.009 2.49 45.829 2.95C46.659 3.41 47.314 4.055 47.794 4.885C48.274 5.705 48.514 6.635 48.514 7.675C48.514 8.715 48.274 9.65 47.794 10.48C47.314 11.3 46.659 11.945 45.829 12.415C44.999 12.875 44.089 13.105 43.099 13.105ZM43.099 10.375C43.849 10.375 44.439 10.13 44.869 9.64C45.309 9.15 45.529 8.495 45.529 7.675C45.529 6.835 45.309 6.175 44.869 5.695C44.439 5.205 43.849 4.96 43.099 4.96C42.339 4.96 41.744 5.205 41.314 5.695C40.884 6.175 40.669 6.835 40.669 7.675C40.669 8.505 40.884 9.165 41.314 9.655C41.744 10.135 42.339 10.375 43.099 10.375ZM54.0206 2.425C55.1306 2.425 56.1006 2.65 56.9306 3.1C57.7706 3.54 58.4156 4.16 58.8656 4.96C59.3156 5.76 59.5406 6.675 59.5406 7.705C59.5406 8.725 59.3106 9.635 58.8506 10.435C58.4006 11.235 57.7556 11.865 56.9156 12.325C56.0856 12.775 55.1206 13 54.0206 13H49.8356V2.425H54.0206ZM53.7956 10.405C54.6556 10.405 55.3306 10.17 55.8206 9.7C56.3106 9.23 56.5556 8.565 56.5556 7.705C56.5556 6.835 56.3106 6.165 55.8206 5.695C55.3306 5.215 54.6556 4.975 53.7956 4.975H52.7756V10.405H53.7956ZM8.88877 17.425C9.99877 17.425 10.9688 17.65 11.7988 18.1C12.6388 18.54 13.2838 19.16 13.7338 19.96C14.1838 20.76 14.4088 21.675 14.4088 22.705C14.4088 23.725 14.1788 24.635 13.7188 25.435C13.2688 26.235 12.6238 26.865 11.7838 27.325C10.9538 27.775 9.98877 28 8.88877 28H4.70377V17.425H8.88877ZM8.66377 25.405C9.52377 25.405 10.1988 25.17 10.6888 24.7C11.1788 24.23 11.4238 23.565 11.4238 22.705C11.4238 21.835 11.1788 21.165 10.6888 20.695C10.1988 20.215 9.52377 19.975 8.66377 19.975H7.64377V25.405H8.66377ZM18.674 17.425V28H15.734V17.425H18.674ZM30.6383 17.425L26.9933 28H23.2283L19.5683 17.425H22.7183L25.1183 25.06L27.5033 17.425H30.6383ZM31.1944 22.69C31.1944 21.65 31.4094 20.725 31.8394 19.915C32.2794 19.095 32.8994 18.46 33.6994 18.01C34.4994 17.55 35.4194 17.32 36.4594 17.32C37.7794 17.32 38.8894 17.675 39.7894 18.385C40.6894 19.085 41.2694 20.04 41.5294 21.25H38.3644C38.1744 20.85 37.9094 20.545 37.5694 20.335C37.2394 20.125 36.8544 20.02 36.4144 20.02C35.7344 20.02 35.1894 20.265 34.7794 20.755C34.3794 21.235 34.1794 21.88 34.1794 22.69C34.1794 23.51 34.3794 24.165 34.7794 24.655C35.1894 25.135 35.7344 25.375 36.4144 25.375C36.8544 25.375 37.2394 25.27 37.5694 25.06C37.9094 24.85 38.1744 24.545 38.3644 24.145H41.5294C41.2694 25.355 40.6894 26.315 39.7894 27.025C38.8894 27.725 37.7794 28.075 36.4594 28.075C35.4194 28.075 34.4994 27.85 33.6994 27.4C32.8994 26.94 32.2794 26.305 31.8394 25.495C31.4094 24.675 31.1944 23.74 31.1944 22.69ZM47.9915 28.105C47.0015 28.105 46.0915 27.875 45.2615 27.415C44.4315 26.945 43.7715 26.3 43.2815 25.48C42.8015 24.65 42.5615 23.715 42.5615 22.675C42.5615 21.635 42.8015 20.705 43.2815 19.885C43.7715 19.055 44.4315 18.41 45.2615 17.95C46.0915 17.49 47.0015 17.26 47.9915 17.26C48.9915 17.26 49.9015 17.49 50.7215 17.95C51.5515 18.41 52.2065 19.055 52.6865 19.885C53.1665 20.705 53.4065 21.635 53.4065 22.675C53.4065 23.715 53.1665 24.65 52.6865 25.48C52.2065 26.3 51.5515 26.945 50.7215 27.415C49.8915 27.875 48.9815 28.105 47.9915 28.105ZM47.9915 25.375C48.7415 25.375 49.3315 25.13 49.7615 24.64C50.2015 24.15 50.4215 23.495 50.4215 22.675C50.4215 21.835 50.2015 21.175 49.7615 20.695C49.3315 20.205 48.7415 19.96 47.9915 19.96C47.2315 19.96 46.6365 20.205 46.2065 20.695C45.7765 21.175 45.5615 21.835 45.5615 22.675C45.5615 23.505 45.7765 24.165 46.2065 24.655C46.6365 25.135 47.2315 25.375 47.9915 25.375ZM58.9132 17.425C60.0232 17.425 60.9932 17.65 61.8232 18.1C62.6632 18.54 63.3082 19.16 63.7582 19.96C64.2082 20.76 64.4332 21.675 64.4332 22.705C64.4332 23.725 64.2032 24.635 63.7432 25.435C63.2932 26.235 62.6482 26.865 61.8082 27.325C60.9782 27.775 60.0132 28 58.9132 28H54.7282V17.425H58.9132ZM58.6882 25.405C59.5482 25.405 60.2232 25.17 60.7132 24.7C61.2032 24.23 61.4482 23.565 61.4482 22.705C61.4482 21.835 61.2032 21.165 60.7132 20.695C60.2232 20.215 59.5482 19.975 58.6882 19.975H57.6682V25.405H58.6882ZM68.6985 19.78V21.505H72.0735V23.74H68.6985V25.645H72.5235V28H65.7585V17.425H72.5235V19.78H68.6985Z" fill="white"/>
<path d="M13.9181 35.212C13.9901 35.0867 14.0968 34.9827 14.2381 34.9C14.3821 34.8147 14.5488 34.772 14.7381 34.772C14.9328 34.772 15.1088 34.8187 15.2661 34.912C15.4261 35.0053 15.5514 35.1373 15.6421 35.308C15.7328 35.476 15.7781 35.672 15.7781 35.896C15.7781 36.1173 15.7328 36.3147 15.6421 36.488C15.5514 36.6613 15.4261 36.796 15.2661 36.892C15.1088 36.988 14.9328 37.036 14.7381 37.036C14.5514 37.036 14.3861 36.9947 14.2421 36.912C14.1008 36.8267 13.9928 36.7213 13.9181 36.596V38.04H13.5541V34.808H13.9181V35.212ZM15.4061 35.896C15.4061 35.7307 15.3728 35.5867 15.3061 35.464C15.2394 35.3413 15.1488 35.248 15.0341 35.184C14.9221 35.12 14.7981 35.088 14.6621 35.088C14.5288 35.088 14.4048 35.1213 14.2901 35.188C14.1781 35.252 14.0874 35.3467 14.0181 35.472C13.9514 35.5947 13.9181 35.7373 13.9181 35.9C13.9181 36.0653 13.9514 36.2107 14.0181 36.336C14.0874 36.4587 14.1781 36.5533 14.2901 36.62C14.4048 36.684 14.5288 36.716 14.6621 36.716C14.7981 36.716 14.9221 36.684 15.0341 36.62C15.1488 36.5533 15.2394 36.4587 15.3061 36.336C15.3728 36.2107 15.4061 36.064 15.4061 35.896ZM16.6212 35.164C16.6852 35.0387 16.7759 34.9413 16.8932 34.872C17.0132 34.8027 17.1586 34.768 17.3292 34.768V35.144H17.2332C16.8252 35.144 16.6212 35.3653 16.6212 35.808V37H16.2572V34.808H16.6212V35.164ZM19.6934 34.808V37H19.3294V36.676C19.2601 36.788 19.1627 36.876 19.0374 36.94C18.9147 37.0013 18.7787 37.032 18.6294 37.032C18.4587 37.032 18.3054 36.9973 18.1694 36.928C18.0334 36.856 17.9254 36.7493 17.8454 36.608C17.7681 36.4667 17.7294 36.2947 17.7294 36.092V34.808H18.0894V36.044C18.0894 36.26 18.1441 36.4267 18.2534 36.544C18.3627 36.6587 18.5121 36.716 18.7014 36.716C18.8961 36.716 19.0494 36.656 19.1614 36.536C19.2734 36.416 19.3294 36.2413 19.3294 36.012V34.808H19.6934ZM22.308 35.82C22.308 35.8893 22.304 35.9627 22.296 36.04H20.544C20.5573 36.256 20.6307 36.4253 20.764 36.548C20.9 36.668 21.064 36.728 21.256 36.728C21.4133 36.728 21.544 36.692 21.648 36.62C21.7547 36.5453 21.8293 36.4467 21.872 36.324H22.264C22.2053 36.5347 22.088 36.7067 21.912 36.84C21.736 36.9707 21.5173 37.036 21.256 37.036C21.048 37.036 20.8613 36.9893 20.696 36.896C20.5333 36.8027 20.4053 36.6707 20.312 36.5C20.2187 36.3267 20.172 36.1267 20.172 35.9C20.172 35.6733 20.2173 35.4747 20.308 35.304C20.3987 35.1333 20.5253 35.0027 20.688 34.912C20.8533 34.8187 21.0427 34.772 21.256 34.772C21.464 34.772 21.648 34.8173 21.808 34.908C21.968 34.9987 22.0907 35.124 22.176 35.284C22.264 35.4413 22.308 35.62 22.308 35.82ZM21.932 35.744C21.932 35.6053 21.9013 35.4867 21.84 35.388C21.7787 35.2867 21.6947 35.2107 21.588 35.16C21.484 35.1067 21.368 35.08 21.24 35.08C21.056 35.08 20.8987 35.1387 20.768 35.256C20.64 35.3733 20.5667 35.536 20.548 35.744H21.932ZM23.1525 35.216C23.2271 35.0853 23.3365 34.9787 23.4805 34.896C23.6245 34.8133 23.7885 34.772 23.9725 34.772C24.1698 34.772 24.3471 34.8187 24.5045 34.912C24.6618 35.0053 24.7858 35.1373 24.8765 35.308C24.9671 35.476 25.0125 35.672 25.0125 35.896C25.0125 36.1173 24.9671 36.3147 24.8765 36.488C24.7858 36.6613 24.6605 36.796 24.5005 36.892C24.3431 36.988 24.1671 37.036 23.9725 37.036C23.7831 37.036 23.6165 36.9947 23.4725 36.912C23.3311 36.8293 23.2245 36.724 23.1525 36.596V37H22.7885V34.04H23.1525V35.216ZM24.6405 35.896C24.6405 35.7307 24.6071 35.5867 24.5405 35.464C24.4738 35.3413 24.3831 35.248 24.2685 35.184C24.1565 35.12 24.0325 35.088 23.8965 35.088C23.7631 35.088 23.6391 35.1213 23.5245 35.188C23.4125 35.252 23.3218 35.3467 23.2525 35.472C23.1858 35.5947 23.1525 35.7373 23.1525 35.9C23.1525 36.0653 23.1858 36.2107 23.2525 36.336C23.3218 36.4587 23.4125 36.5533 23.5245 36.62C23.6391 36.684 23.7631 36.716 23.8965 36.716C24.0325 36.716 24.1565 36.684 24.2685 36.62C24.3831 36.5533 24.4738 36.4587 24.5405 36.336C24.6071 36.2107 24.6405 36.064 24.6405 35.896ZM25.3556 35.896C25.3556 35.672 25.4009 35.476 25.4916 35.308C25.5823 35.1373 25.7063 35.0053 25.8636 34.912C26.0236 34.8187 26.2009 34.772 26.3956 34.772C26.5876 34.772 26.7543 34.8133 26.8956 34.896C27.0369 34.9787 27.1423 35.0827 27.2116 35.208V34.808H27.5796V37H27.2116V36.592C27.1396 36.72 27.0316 36.8267 26.8876 36.912C26.7463 36.9947 26.5809 37.036 26.3916 37.036C26.1969 37.036 26.0209 36.988 25.8636 36.892C25.7063 36.796 25.5823 36.6613 25.4916 36.488C25.4009 36.3147 25.3556 36.1173 25.3556 35.896ZM27.2116 35.9C27.2116 35.7347 27.1783 35.5907 27.1116 35.468C27.0449 35.3453 26.9543 35.252 26.8396 35.188C26.7276 35.1213 26.6036 35.088 26.4676 35.088C26.3316 35.088 26.2076 35.12 26.0956 35.184C25.9836 35.248 25.8943 35.3413 25.8276 35.464C25.7609 35.5867 25.7276 35.7307 25.7276 35.896C25.7276 36.064 25.7609 36.2107 25.8276 36.336C25.8943 36.4587 25.9836 36.5533 26.0956 36.62C26.2076 36.684 26.3316 36.716 26.4676 36.716C26.6036 36.716 26.7276 36.684 26.8396 36.62C26.9543 36.5533 27.0449 36.4587 27.1116 36.336C27.1783 36.2107 27.2116 36.0653 27.2116 35.9ZM30.3291 34.768C30.5958 34.768 30.8118 34.8493 30.9771 35.012C31.1425 35.172 31.2251 35.404 31.2251 35.708V37H30.8651V35.76C30.8651 35.5413 30.8105 35.3747 30.7011 35.26C30.5918 35.1427 30.4425 35.084 30.2531 35.084C30.0611 35.084 29.9078 35.144 29.7931 35.264C29.6811 35.384 29.6251 35.5587 29.6251 35.788V37H29.2611V34.808H29.6251V35.12C29.6971 35.008 29.7945 34.9213 29.9171 34.86C30.0425 34.7987 30.1798 34.768 30.3291 34.768ZM33.7637 34.808V37H33.3997V36.676C33.3304 36.788 33.2331 36.876 33.1077 36.94C32.9851 37.0013 32.8491 37.032 32.6997 37.032C32.5291 37.032 32.3757 36.9973 32.2397 36.928C32.1037 36.856 31.9957 36.7493 31.9157 36.608C31.8384 36.4667 31.7997 36.2947 31.7997 36.092V34.808H32.1597V36.044C32.1597 36.26 32.2144 36.4267 32.3237 36.544C32.4331 36.6587 32.5824 36.716 32.7717 36.716C32.9664 36.716 33.1197 36.656 33.2317 36.536C33.3437 36.416 33.3997 36.2413 33.3997 36.012V34.808H33.7637ZM36.3783 35.82C36.3783 35.8893 36.3743 35.9627 36.3663 36.04H34.6143C34.6276 36.256 34.701 36.4253 34.8343 36.548C34.9703 36.668 35.1343 36.728 35.3263 36.728C35.4836 36.728 35.6143 36.692 35.7183 36.62C35.825 36.5453 35.8996 36.4467 35.9423 36.324H36.3343C36.2756 36.5347 36.1583 36.7067 35.9823 36.84C35.8063 36.9707 35.5876 37.036 35.3263 37.036C35.1183 37.036 34.9316 36.9893 34.7663 36.896C34.6036 36.8027 34.4756 36.6707 34.3823 36.5C34.289 36.3267 34.2423 36.1267 34.2423 35.9C34.2423 35.6733 34.2876 35.4747 34.3783 35.304C34.469 35.1333 34.5956 35.0027 34.7583 34.912C34.9236 34.8187 35.113 34.772 35.3263 34.772C35.5343 34.772 35.7183 34.8173 35.8783 34.908C36.0383 34.9987 36.161 35.124 36.2463 35.284C36.3343 35.4413 36.3783 35.62 36.3783 35.82ZM36.0023 35.744C36.0023 35.6053 35.9716 35.4867 35.9103 35.388C35.849 35.2867 35.765 35.2107 35.6583 35.16C35.5543 35.1067 35.4383 35.08 35.3103 35.08C35.1263 35.08 34.969 35.1387 34.8383 35.256C34.7103 35.3733 34.637 35.536 34.6183 35.744H36.0023ZM37.6348 37.036C37.4668 37.036 37.3161 37.008 37.1828 36.952C37.0494 36.8933 36.9441 36.8133 36.8668 36.712C36.7894 36.608 36.7468 36.4893 36.7388 36.356H37.1148C37.1254 36.4653 37.1761 36.5547 37.2668 36.624C37.3601 36.6933 37.4814 36.728 37.6308 36.728C37.7694 36.728 37.8788 36.6973 37.9588 36.636C38.0388 36.5747 38.0788 36.4973 38.0788 36.404C38.0788 36.308 38.0361 36.2373 37.9508 36.192C37.8654 36.144 37.7334 36.0973 37.5548 36.052C37.3921 36.0093 37.2588 35.9667 37.1548 35.924C37.0534 35.8787 36.9654 35.8133 36.8908 35.728C36.8188 35.64 36.7828 35.5253 36.7828 35.384C36.7828 35.272 36.8161 35.1693 36.8828 35.076C36.9494 34.9827 37.0441 34.9093 37.1668 34.856C37.2894 34.8 37.4294 34.772 37.5868 34.772C37.8294 34.772 38.0254 34.8333 38.1748 34.956C38.3241 35.0787 38.4041 35.2467 38.4148 35.46H38.0508C38.0428 35.3453 37.9961 35.2533 37.9108 35.184C37.8281 35.1147 37.7161 35.08 37.5748 35.08C37.4441 35.08 37.3401 35.108 37.2628 35.164C37.1854 35.22 37.1468 35.2933 37.1468 35.384C37.1468 35.456 37.1694 35.516 37.2148 35.564C37.2628 35.6093 37.3214 35.6467 37.3908 35.676C37.4628 35.7027 37.5614 35.7333 37.6868 35.768C37.8441 35.8107 37.9721 35.8533 38.0708 35.896C38.1694 35.936 38.2534 35.9973 38.3228 36.08C38.3948 36.1627 38.4321 36.2707 38.4348 36.404C38.4348 36.524 38.4014 36.632 38.3348 36.728C38.2681 36.824 38.1734 36.9 38.0508 36.956C37.9308 37.0093 37.7921 37.036 37.6348 37.036ZM39.3926 35.108V36.4C39.3926 36.5067 39.4153 36.5827 39.4606 36.628C39.506 36.6707 39.5846 36.692 39.6966 36.692H39.9646V37H39.6366C39.434 37 39.282 36.9533 39.1806 36.86C39.0793 36.7667 39.0286 36.6133 39.0286 36.4V35.108H38.7446V34.808H39.0286V34.256H39.3926V34.808H39.9646V35.108H39.3926ZM40.7697 35.164C40.8337 35.0387 40.9243 34.9413 41.0417 34.872C41.1617 34.8027 41.307 34.768 41.4777 34.768V35.144H41.3817C40.9737 35.144 40.7697 35.3653 40.7697 35.808V37H40.4057V34.808H40.7697V35.164ZM42.8538 37.036C42.6485 37.036 42.4618 36.9893 42.2938 36.896C42.1285 36.8027 41.9978 36.6707 41.9018 36.5C41.8085 36.3267 41.7618 36.1267 41.7618 35.9C41.7618 35.676 41.8098 35.4787 41.9058 35.308C42.0045 35.1347 42.1378 35.0027 42.3058 34.912C42.4738 34.8187 42.6618 34.772 42.8698 34.772C43.0778 34.772 43.2658 34.8187 43.4338 34.912C43.6018 35.0027 43.7338 35.1333 43.8298 35.304C43.9285 35.4747 43.9778 35.6733 43.9778 35.9C43.9778 36.1267 43.9272 36.3267 43.8258 36.5C43.7272 36.6707 43.5925 36.8027 43.4218 36.896C43.2512 36.9893 43.0618 37.036 42.8538 37.036ZM42.8538 36.716C42.9845 36.716 43.1072 36.6853 43.2218 36.624C43.3365 36.5627 43.4285 36.4707 43.4978 36.348C43.5698 36.2253 43.6058 36.076 43.6058 35.9C43.6058 35.724 43.5712 35.5747 43.5018 35.452C43.4325 35.3293 43.3418 35.2387 43.2298 35.18C43.1178 35.1187 42.9965 35.088 42.8658 35.088C42.7325 35.088 42.6098 35.1187 42.4978 35.18C42.3885 35.2387 42.3005 35.3293 42.2338 35.452C42.1672 35.5747 42.1338 35.724 42.1338 35.9C42.1338 36.0787 42.1658 36.2293 42.2298 36.352C42.2965 36.4747 42.3845 36.5667 42.4938 36.628C42.6032 36.6867 42.7232 36.716 42.8538 36.716ZM45.2324 37.036C45.0644 37.036 44.9138 37.008 44.7804 36.952C44.6471 36.8933 44.5418 36.8133 44.4644 36.712C44.3871 36.608 44.3444 36.4893 44.3364 36.356H44.7124C44.7231 36.4653 44.7738 36.5547 44.8644 36.624C44.9578 36.6933 45.0791 36.728 45.2284 36.728C45.3671 36.728 45.4764 36.6973 45.5564 36.636C45.6364 36.5747 45.6764 36.4973 45.6764 36.404C45.6764 36.308 45.6338 36.2373 45.5484 36.192C45.4631 36.144 45.3311 36.0973 45.1524 36.052C44.9898 36.0093 44.8564 35.9667 44.7524 35.924C44.6511 35.8787 44.5631 35.8133 44.4884 35.728C44.4164 35.64 44.3804 35.5253 44.3804 35.384C44.3804 35.272 44.4138 35.1693 44.4804 35.076C44.5471 34.9827 44.6418 34.9093 44.7644 34.856C44.8871 34.8 45.0271 34.772 45.1844 34.772C45.4271 34.772 45.6231 34.8333 45.7724 34.956C45.9218 35.0787 46.0018 35.2467 46.0124 35.46H45.6484C45.6404 35.3453 45.5938 35.2533 45.5084 35.184C45.4258 35.1147 45.3138 35.08 45.1724 35.08C45.0418 35.08 44.9378 35.108 44.8604 35.164C44.7831 35.22 44.7444 35.2933 44.7444 35.384C44.7444 35.456 44.7671 35.516 44.8124 35.564C44.8604 35.6093 44.9191 35.6467 44.9884 35.676C45.0604 35.7027 45.1591 35.7333 45.2844 35.768C45.4418 35.8107 45.5698 35.8533 45.6684 35.896C45.7671 35.936 45.8511 35.9973 45.9204 36.08C45.9924 36.1627 46.0298 36.2707 46.0324 36.404C46.0324 36.524 45.9991 36.632 45.9324 36.728C45.8658 36.824 45.7711 36.9 45.6484 36.956C45.5284 37.0093 45.3898 37.036 45.2324 37.036ZM47.9767 35.212C48.0487 35.0867 48.1554 34.9827 48.2967 34.9C48.4407 34.8147 48.6074 34.772 48.7967 34.772C48.9914 34.772 49.1674 34.8187 49.3247 34.912C49.4847 35.0053 49.61 35.1373 49.7007 35.308C49.7914 35.476 49.8367 35.672 49.8367 35.896C49.8367 36.1173 49.7914 36.3147 49.7007 36.488C49.61 36.6613 49.4847 36.796 49.3247 36.892C49.1674 36.988 48.9914 37.036 48.7967 37.036C48.61 37.036 48.4447 36.9947 48.3007 36.912C48.1594 36.8267 48.0514 36.7213 47.9767 36.596V38.04H47.6127V34.808H47.9767V35.212ZM49.4647 35.896C49.4647 35.7307 49.4314 35.5867 49.3647 35.464C49.298 35.3413 49.2074 35.248 49.0927 35.184C48.9807 35.12 48.8567 35.088 48.7207 35.088C48.5874 35.088 48.4634 35.1213 48.3487 35.188C48.2367 35.252 48.146 35.3467 48.0767 35.472C48.01 35.5947 47.9767 35.7373 47.9767 35.9C47.9767 36.0653 48.01 36.2107 48.0767 36.336C48.146 36.4587 48.2367 36.5533 48.3487 36.62C48.4634 36.684 48.5874 36.716 48.7207 36.716C48.8567 36.716 48.9807 36.684 49.0927 36.62C49.2074 36.5533 49.298 36.4587 49.3647 36.336C49.4314 36.2107 49.4647 36.064 49.4647 35.896ZM50.6798 34.04V37H50.3158V34.04H50.6798ZM51.1642 35.896C51.1642 35.672 51.2095 35.476 51.3002 35.308C51.3909 35.1373 51.5149 35.0053 51.6722 34.912C51.8322 34.8187 52.0095 34.772 52.2042 34.772C52.3962 34.772 52.5629 34.8133 52.7042 34.896C52.8455 34.9787 52.9509 35.0827 53.0202 35.208V34.808H53.3882V37H53.0202V36.592C52.9482 36.72 52.8402 36.8267 52.6962 36.912C52.5549 36.9947 52.3895 37.036 52.2002 37.036C52.0055 37.036 51.8295 36.988 51.6722 36.892C51.5149 36.796 51.3909 36.6613 51.3002 36.488C51.2095 36.3147 51.1642 36.1173 51.1642 35.896ZM53.0202 35.9C53.0202 35.7347 52.9869 35.5907 52.9202 35.468C52.8535 35.3453 52.7629 35.252 52.6482 35.188C52.5362 35.1213 52.4122 35.088 52.2762 35.088C52.1402 35.088 52.0162 35.12 51.9042 35.184C51.7922 35.248 51.7029 35.3413 51.6362 35.464C51.5695 35.5867 51.5362 35.7307 51.5362 35.896C51.5362 36.064 51.5695 36.2107 51.6362 36.336C51.7029 36.4587 51.7922 36.5533 51.9042 36.62C52.0162 36.684 52.1402 36.716 52.2762 36.716C52.4122 36.716 52.5362 36.684 52.6482 36.62C52.7629 36.5533 52.8535 36.4587 52.9202 36.336C52.9869 36.2107 53.0202 36.0653 53.0202 35.9ZM54.4473 35.108V36.4C54.4473 36.5067 54.47 36.5827 54.5153 36.628C54.5606 36.6707 54.6393 36.692 54.7513 36.692H55.0193V37H54.6913C54.4886 37 54.3366 36.9533 54.2353 36.86C54.134 36.7667 54.0833 36.6133 54.0833 36.4V35.108H53.7993V34.808H54.0833V34.256H54.4473V34.808H55.0193V35.108H54.4473ZM55.6483 34.452C55.579 34.452 55.5203 34.428 55.4723 34.38C55.4243 34.332 55.4003 34.2733 55.4003 34.204C55.4003 34.1347 55.4243 34.076 55.4723 34.028C55.5203 33.98 55.579 33.956 55.6483 33.956C55.715 33.956 55.771 33.98 55.8163 34.028C55.8643 34.076 55.8883 34.1347 55.8883 34.204C55.8883 34.2733 55.8643 34.332 55.8163 34.38C55.771 34.428 55.715 34.452 55.6483 34.452ZM55.8243 34.808V37H55.4603V34.808H55.8243ZM56.8087 34.04V37H56.4447V34.04H56.8087ZM57.7931 34.04V37H57.4291V34.04H57.7931ZM59.3695 37.036C59.1641 37.036 58.9775 36.9893 58.8095 36.896C58.6441 36.8027 58.5135 36.6707 58.4175 36.5C58.3241 36.3267 58.2775 36.1267 58.2775 35.9C58.2775 35.676 58.3255 35.4787 58.4215 35.308C58.5201 35.1347 58.6535 35.0027 58.8215 34.912C58.9895 34.8187 59.1775 34.772 59.3855 34.772C59.5935 34.772 59.7815 34.8187 59.9495 34.912C60.1175 35.0027 60.2495 35.1333 60.3455 35.304C60.4441 35.4747 60.4935 35.6733 60.4935 35.9C60.4935 36.1267 60.4428 36.3267 60.3415 36.5C60.2428 36.6707 60.1081 36.8027 59.9375 36.896C59.7668 36.9893 59.5775 37.036 59.3695 37.036ZM59.3695 36.716C59.5001 36.716 59.6228 36.6853 59.7375 36.624C59.8521 36.5627 59.9441 36.4707 60.0135 36.348C60.0855 36.2253 60.1215 36.076 60.1215 35.9C60.1215 35.724 60.0868 35.5747 60.0175 35.452C59.9481 35.3293 59.8575 35.2387 59.7455 35.18C59.6335 35.1187 59.5121 35.088 59.3815 35.088C59.2481 35.088 59.1255 35.1187 59.0135 35.18C58.9041 35.2387 58.8161 35.3293 58.7495 35.452C58.6828 35.5747 58.6495 35.724 58.6495 35.9C58.6495 36.0787 58.6815 36.2293 58.7455 36.352C58.8121 36.4747 58.9001 36.5667 59.0095 36.628C59.1188 36.6867 59.2388 36.716 59.3695 36.716ZM61.7481 37.036C61.5801 37.036 61.4294 37.008 61.2961 36.952C61.1627 36.8933 61.0574 36.8133 60.9801 36.712C60.9027 36.608 60.8601 36.4893 60.8521 36.356H61.2281C61.2387 36.4653 61.2894 36.5547 61.3801 36.624C61.4734 36.6933 61.5947 36.728 61.7441 36.728C61.8827 36.728 61.9921 36.6973 62.0721 36.636C62.1521 36.5747 62.1921 36.4973 62.1921 36.404C62.1921 36.308 62.1494 36.2373 62.0641 36.192C61.9787 36.144 61.8467 36.0973 61.6681 36.052C61.5054 36.0093 61.3721 35.9667 61.2681 35.924C61.1667 35.8787 61.0787 35.8133 61.0041 35.728C60.9321 35.64 60.8961 35.5253 60.8961 35.384C60.8961 35.272 60.9294 35.1693 60.9961 35.076C61.0627 34.9827 61.1574 34.9093 61.2801 34.856C61.4027 34.8 61.5427 34.772 61.7001 34.772C61.9427 34.772 62.1387 34.8333 62.2881 34.956C62.4374 35.0787 62.5174 35.2467 62.5281 35.46H62.1641C62.1561 35.3453 62.1094 35.2533 62.0241 35.184C61.9414 35.1147 61.8294 35.08 61.6881 35.08C61.5574 35.08 61.4534 35.108 61.3761 35.164C61.2987 35.22 61.2601 35.2933 61.2601 35.384C61.2601 35.456 61.2827 35.516 61.3281 35.564C61.3761 35.6093 61.4347 35.6467 61.5041 35.676C61.5761 35.7027 61.6747 35.7333 61.8001 35.768C61.9574 35.8107 62.0854 35.8533 62.1841 35.896C62.2827 35.936 62.3667 35.9973 62.4361 36.08C62.5081 36.1627 62.5454 36.2707 62.5481 36.404C62.5481 36.524 62.5147 36.632 62.4481 36.728C62.3814 36.824 62.2867 36.9 62.1641 36.956C62.0441 37.0093 61.9054 37.036 61.7481 37.036Z" fill="#D3D2D2"/>
</svg>
