<svg width="100" height="100" viewBox="0 0 100 100" fill="none" xmlns="http://www.w3.org/2000/svg">
<circle cx="50" cy="50" r="50" fill="url(#paint0_linear_283_15)"/>
<path d="M39.0445 31.8365C39.2363 32.0308 39.488 32.1285 39.7397 32.1285C39.9915 32.1285 40.2432 32.0308 40.4349 31.8365C40.8194 31.447 40.8194 30.8173 40.4349 30.4277C39.4369 29.4154 39.4369 27.7694 40.4349 26.7571C41.2904 25.8902 41.7624 24.7384 41.7624 23.5129C41.7624 22.2874 41.2914 21.1356 40.4349 20.2687C40.0505 19.8792 39.429 19.8792 39.0445 20.2687C38.66 20.6583 38.66 21.288 39.0445 21.6776C39.5283 22.1678 39.7958 22.8194 39.7958 23.5129C39.7958 24.2064 39.5293 24.858 39.0445 25.3482C37.2794 27.1367 37.2794 30.0481 39.0445 31.8365Z" fill="#FDFDFD"/>
<path d="M60.6773 31.8365C60.8691 32.0308 61.1208 32.1285 61.3725 32.1285C61.6243 32.1285 61.876 32.0308 62.0678 31.8365C62.4522 31.447 62.4522 30.8173 62.0678 30.4277C61.0697 29.4154 61.0697 27.7694 62.0678 26.7571C62.9233 25.8902 63.3953 24.7384 63.3953 23.5129C63.3953 22.2874 62.9242 21.1356 62.0678 20.2687C61.6833 19.8792 61.0618 19.8792 60.6773 20.2687C60.2928 20.6583 60.2928 21.288 60.6773 21.6776C61.1611 22.1678 61.4286 22.8194 61.4286 23.5129C61.4286 24.2064 61.1621 24.858 60.6773 25.3482C58.9122 27.1367 58.9122 30.0481 60.6773 31.8365Z" fill="#FDFDFD"/>
<path d="M49.8609 25.86C50.0527 26.0543 50.3044 26.1519 50.5561 26.1519C50.8079 26.1519 51.0596 26.0543 51.2514 25.86C51.6358 25.4704 51.6358 24.8407 51.2514 24.4511C50.2533 23.4388 50.2533 21.7928 51.2514 20.7805C52.1069 19.9137 52.5789 18.7619 52.5789 17.5363C52.5789 16.3108 52.1078 15.159 51.2514 14.2922C50.8669 13.9026 50.2454 13.9026 49.8609 14.2922C49.4764 14.6818 49.4764 15.3115 49.8609 15.701C50.3447 16.1913 50.6122 16.8429 50.6122 17.5363C50.6122 18.2298 50.3457 18.8814 49.8609 19.3716C48.0958 21.1601 48.0958 24.0715 49.8609 25.86Z" fill="#FDFDFD"/>
<path d="M45.9223 39.6122C45.9941 39.6122 46.0669 39.6043 46.1397 39.5883C47.5537 39.2655 49.0159 39.1021 50.487 39.1021C50.4909 39.1021 50.4948 39.1021 50.4998 39.1021C51.0426 39.1021 51.4831 38.6567 51.4831 38.1067C51.4831 37.5557 51.0435 37.1094 50.4998 37.1094C50.4958 37.1094 50.4909 37.1094 50.486 37.1094C48.8704 37.1094 47.2626 37.2897 45.707 37.6444C45.177 37.765 44.8446 38.298 44.9636 38.8351C45.0678 39.2984 45.473 39.6122 45.9223 39.6122Z" fill="#FDFDFD"/>
<path d="M30.6566 56.0238C30.7166 56.0358 30.7756 56.0408 30.8336 56.0408C31.2997 56.0408 31.7137 55.704 31.8002 55.2238C32.8219 49.5465 36.1987 44.4949 40.8331 41.7131C41.3002 41.4331 41.4546 40.8213 41.1783 40.348C40.901 39.8748 40.2982 39.7183 39.8311 39.9983C34.7138 43.0701 30.989 48.6278 29.866 54.8651C29.7677 55.4071 30.1217 55.9252 30.6566 56.0238Z" fill="#FDFDFD"/>
<path d="M75.6969 54.6756C73.9151 44.0733 65.7584 35.6491 55.3744 33.6085C55.3911 33.4491 55.4167 33.2887 55.4167 33.1303C55.4167 30.3833 53.2111 28.1484 50.5 28.1484C47.789 28.1484 45.5833 30.3833 45.5833 33.1303C45.5833 33.2887 45.6079 33.4491 45.6256 33.6085C35.2416 35.6491 27.0849 44.0733 25.3031 54.6756C23.2479 55.8543 21 57.589 21 59.5349C21 64.6014 36.2535 68.004 50.5 68.004C64.7465 68.004 80 64.6014 80 59.5349C80 57.589 77.7521 55.8543 75.6969 54.6756ZM47.5559 33.3026C47.552 33.2448 47.55 33.1871 47.55 33.1313C47.55 31.4833 48.8736 30.1422 50.5 30.1422C52.1264 30.1422 53.45 31.4833 53.45 33.1313C53.45 33.188 53.448 33.2448 53.4441 33.3026C53.3979 33.2976 53.3517 33.2957 53.3064 33.2907C52.9682 33.2528 52.6279 33.2259 52.2857 33.202C52.1599 33.193 52.035 33.1801 51.9091 33.1731C51.443 33.1472 50.974 33.1323 50.501 33.1323C50.028 33.1323 49.559 33.1472 49.0929 33.1731C48.967 33.1801 48.8421 33.193 48.7162 33.202C48.374 33.2259 48.0338 33.2538 47.6955 33.2907C47.6483 33.2957 47.6021 33.2967 47.5559 33.3026ZM46.959 35.393C47.4871 35.3133 48.0181 35.2555 48.551 35.2117C48.6602 35.2027 48.7693 35.1947 48.8785 35.1868C49.9582 35.113 51.0428 35.113 52.1225 35.1868C52.2317 35.1947 52.3408 35.2027 52.45 35.2117C52.9829 35.2555 53.5139 35.3133 54.042 35.393C64.2863 36.9623 72.388 45.2291 73.8581 55.6351C73.9033 55.955 73.9397 56.2758 73.9722 56.5966C73.983 56.7072 73.9977 56.8168 74.0076 56.9274C74.0459 57.3688 74.0744 57.8102 74.0882 58.2516C58.64 61.8793 42.3619 61.8793 26.9138 58.2516C26.9285 57.8102 26.9561 57.3688 26.9944 56.9274C27.0042 56.8168 27.018 56.7072 27.0298 56.5966C27.0623 56.2748 27.0986 55.954 27.1439 55.6351C28.613 45.2291 36.7147 36.9613 46.959 35.393ZM50.5 66.0113C33.6889 66.0113 22.9667 61.7578 22.9667 59.5349C22.9667 59.1533 23.4328 58.3124 24.9963 57.2154C24.9923 57.2722 24.9943 57.328 24.9904 57.3847C24.9569 57.9308 24.9333 58.4807 24.9333 59.0367V59.8219L25.6876 60.0062C33.804 61.979 42.1525 62.9674 50.5 62.9674C58.8475 62.9674 67.196 61.98 75.3125 60.0062L76.0667 59.8219V59.0367C76.0667 58.4807 76.0431 57.9318 76.0096 57.3847C76.0057 57.328 76.0077 57.2722 76.0037 57.2154C77.5672 58.3124 78.0333 59.1533 78.0333 59.5349C78.0333 61.7578 67.3111 66.0113 50.5 66.0113Z" fill="#FDFDFD"/>
<defs>
<linearGradient id="paint0_linear_283_15" x1="0" y1="50" x2="100" y2="50" gradientUnits="userSpaceOnUse">
<stop stop-color="#E4052C"/>
<stop offset="1" stop-color="#97041A"/>
</linearGradient>
</defs>
</svg>
